<svg id="Calque_1" data-name="Calque 1" xmlns="http://www.w3.org/2000/svg" width="362.83" height="500" viewBox="0 0 362.83 500">
    <defs>
        <style>.cls-1{fill:#fff;}.cls-2{fill:#e6e7e7;}.cls-3{fill:#020202;}.cls-4{fill:#010101;}</style>
    </defs>
    <title>Logo</title>
    <g id="Icon_ionic-ios-apps" data-name="Icon ionic-ios-apps" transform="translate(-4.494 -4.496)">
        <path d="M360.25,237.7a55.59,55.59,0,0,0-.3-6.45c-.12-1.1-.27-2.19-.46-3.27-1.62-9.47-6.63-16.09-16.09-19a7,7,0,0,0-4.33,0,33.89,33.89,0,0,0-9.71,4.95c-.44.3-.86,1.1-1.75.37.09-.73.17-1.53.3-2.32a94.72,94.72,0,0,0,1-20.26,242.53,242.53,0,0,0-3.46-30.66A305.55,305.55,0,0,0,314.62,117c-2-6-4-12.14-7.39-17.55a38.4,38.4,0,0,1-4.43-10.77c-.11-.39-.19-.79-.3-1.18-5.29-17.75-14.25-33.29-27.7-46.14a114.79,114.79,0,0,0-34.92-22.57c-18.77-8-38.47-11.65-58.74-12.75-8.82-.48-17.62.21-26.4.85a187.46,187.46,0,0,0-25.68,3.76A150.5,150.5,0,0,0,91.31,23.77C71,34.23,55,49.23,44,69.3c-10.64,19.41-15.49,40.31-15.48,62.39a12,12,0,0,1-.83,5.12c-5.06,11.6-7.12,23.83-7.18,36.42a131.46,131.46,0,0,0,4.27,33.36,113.37,113.37,0,0,0,5.57,17.07c-1.65.46-3.35.88-5,1.4-5.16,1.59-10.3,3.24-15.46,4.81-1.81.55-3.67.93-5.49,1.43-1.42.39-1.77.81-1.79,2.25,0,2.16,0,4.34,0,6.5,0,1.4.3,1.68,1.63,1.72,2,.06,4,.06,6.16.1.14,2.22.16,4.24.4,6.22.68,5.78,1.31,11.58,2.21,17.33a57,57,0,0,0,12.34,27.89,32.77,32.77,0,0,0,18.52,11.75,98.83,98.83,0,0,0,23.77,2.61,70.21,70.21,0,0,0,26.78-5.85A39,39,0,0,0,116.78,277a65.62,65.62,0,0,0,2-8.69A118.2,118.2,0,0,0,120,254.09a42.21,42.21,0,0,1,1.43-9.63,5.65,5.65,0,0,1,1.47-2.83c5-4.49,10.72-7.38,17.7-6.52,4.57.56,8.18,2.68,10.18,7,.39.85.85,1.69,1.18,2.58A115.89,115.89,0,0,0,163.59,267a101.59,101.59,0,0,0,10.15,13.21c6.54,7.16,14.47,11.67,24.63,11.25,6.22-.24,12.44-.07,18.67-.74a129.26,129.26,0,0,0,27.68-6,58.26,58.26,0,0,0,18.5-9.95c7.72-6.37,12.12-14.37,12.31-24.57.23-12.33.41-24.68,0-37a10.53,10.53,0,0,1,3-8c2-2.18,3.1-2.52,5.73-1.28,4.9,2.29,9.73,4.72,14.58,7.12a2.7,2.7,0,0,1,1.48,1.79,116.62,116.62,0,0,1,4.67,25.51A188.09,188.09,0,0,1,302.6,284a82.51,82.51,0,0,1-10.41,28.41,188.09,188.09,0,0,1-19.55,26.44c-6.33,7.25-12.85,14.33-19.24,21.53a44.47,44.47,0,0,0-4.8,6,30.87,30.87,0,0,1-8.3,8.81c-.55.41-1.05.89-1.89.38,0-.74,0-1.55,0-2.35-.58-8.71-3.53-16.31-10-22.42a81.48,81.48,0,0,0-11-9c-19-12.54-40-18.77-62.72-19.29a92.82,92.82,0,0,0-21.38,2.15,98.57,98.57,0,0,0-38.19,17.06,48,48,0,0,0-10.63,10.57c-6,8.29-8.07,17.31-5.15,27.29.14.52.51,1.08-.23,1.85-3.16-4.26-6.27-8.35-9.27-12.51C61.56,357.54,53.74,345.83,46,334.06c-.46-.7-.64-1.91-2-1.7-.23,2.88.48,5.65,1.06,8.41a121.68,121.68,0,0,0,7.33,22.34A377.46,377.46,0,0,0,77.9,412.49a12.8,12.8,0,0,1,2,7.61c-.49,11.44,1,23.64,6.06,34a50.34,50.34,0,0,0,6.51,10.06C103,476.75,119,482.89,134.4,487.05a210.34,210.34,0,0,0,30.15,5.83c9.92,1.17,20,2,30,.32a78.12,78.12,0,0,0,44-23.6c6.38-6.74,10.89-15.37,14.43-23.88q1-2.36,1.85-4.72a12.17,12.17,0,0,1,5.27-6.42,52.39,52.39,0,0,0,12-10.25,133.48,133.48,0,0,0,23.58-40.11c8.1-21.28,17.39-42.3,18.19-65.71.17-4.8,1.22-9.61,1.31-14.5.47-26.28-.82-52.54-.84-78.81,0-1.49-.25-3,.34-4.44,1.05-2.52,3.24-2.22,5.19-1.59,2.65.84.74,2.32.2,3.46-.63,1.34-1.51,2.58-1.67,4.11a1.71,1.71,0,0,0,.64,1.8c.73.42,1.26-.17,1.77-.6a10.87,10.87,0,0,0,1.87-2.13c3.52-5,8.63-7.69,14.13-9.83a8.87,8.87,0,0,1,9.16,1.47c3.09,2.37,4.63,5.61,5.47,9.25a36.6,36.6,0,0,1,.4,13.35c-3.36,23.43-8.5,46.38-19.15,67.76-4.29,8.62-4.55,8.7-13.66,5.65-.25-.08-.5-.2-.76-.27-.92-.23-2-.61-2.52.46-.33.74.44,1.47,1,2.07,5.47,5.74,13.44,5.33,18.14-.94.73-1,1.45-2,2.11-3,2.54-3.93,4.89-8,7.05-12.14s4.09-8.31,5.83-12.61,3.25-8.61,4.56-13,2.41-8.9,3.29-13.42,1.58-9.2,2.05-13.84C360,243.76,360.24,240.73,360.25,237.7Zm-61.82-35.26c-2.81-1.68-5.22-3.15-7.66-4.58-2.68-1.56-5.09-3.87-8.1-4.54s-5.94-.26-8.92-.38c-6.09-.23-12.18-.55-18.28-.72a223.09,223.09,0,0,0-32.06,1.41,194.69,194.69,0,0,0-41.49,9.08,111.48,111.48,0,0,0-25.45,12.4,73.14,73.14,0,0,0-9,7,6.54,6.54,0,0,1-3.93,1.86c-2.41.25-4.78.87-7.19,1.25-1.6.25-3.22.4-4.84.49-1.35.08-2.71,0-4.07,0a55.21,55.21,0,0,1-16.85-1.84A145.32,145.32,0,0,0,83,219.65a159.37,159.37,0,0,0-17.06-.51c-10.57.41-21.08,1.31-31.41,3.74a7,7,0,0,1-.8.14,1.07,1.07,0,0,1-1.38-1c-.41-2.82-.91-5.62-1.27-8.44-1.4-11.15-3-22.29-4.06-33.48a106.63,106.63,0,0,1,.36-23.14,105.49,105.49,0,0,1,5.86-24.41,83.13,83.13,0,0,1,4-8.89,11.13,11.13,0,0,1,3.72-4.17A151.8,151.8,0,0,1,71,103.53a251.86,251.86,0,0,1,41.12-12.3c9-2,18.06-3.47,27.17-4.73,6.17-.85,12.39-1.3,18.58-2a408.69,408.69,0,0,1,45.07-1.92C213,82.68,223,83,233,84a130.61,130.61,0,0,1,16.46,2.42c.79.18,1.54.51,2.34.67a7.31,7.31,0,0,1,5,3.84,39.5,39.5,0,0,1,3.54,8.62,132,132,0,0,1,4,18.65c.72,4.82,1.23,9.67,1.85,14.5.1.81.24,1.61.39,2.41a1.3,1.3,0,0,0,1.4,1.16,11.47,11.47,0,0,0,2,0c2.73-.47,4.68.85,6.46,2.67a39.6,39.6,0,0,1,6.18,8.53,101.72,101.72,0,0,1,7.73,18.74,275.23,275.23,0,0,1,8.07,34.37A14.8,14.8,0,0,1,298.43,202.44ZM223.92,386.77c-2.54,8.14-6.34,15.51-12.54,21.5a37.69,37.69,0,0,1-19.62,9.92c-.66.13-1.35.1-2,.18a2.26,2.26,0,0,1-2.38-1.15c-.57-.92-1.19-1.81-1.75-2.74-5.12-8.52-12.85-13.34-22.32-15.57a33.21,33.21,0,0,0-18,.65A25.85,25.85,0,0,0,131.2,410c-1.51,2.25-2.83,4.61-4.2,6.95s-1.54,2.45-4.18,1.91a22.37,22.37,0,0,1-7.16-2.7,46.55,46.55,0,0,1-6.88-5c-4-3.48-7.58-7.37-11.2-11.22A14.56,14.56,0,0,1,94.37,393a27.29,27.29,0,0,1-.87-8.06,63.71,63.71,0,0,1,3-17.14,5,5,0,0,1,2.09-2.85c11.17-7.63,23.18-13.25,36.54-15.91a109.12,109.12,0,0,1,23.45-1.63,162.94,162.94,0,0,1,25.77,3A84.77,84.77,0,0,1,198.88,354a44.11,44.11,0,0,1,14.31,8.28,34.31,34.31,0,0,1,10.92,18.14A11.46,11.46,0,0,1,223.92,386.77Z"/>
        <path class="cls-2"
              d="M243,199.32c5,.19,10-.08,15,.63a8.36,8.36,0,0,1,4.65,2.2,23.26,23.26,0,0,1,5.79,9.2,52.88,52.88,0,0,1,3.1,14.24c.55,6.33,1.11,12.68.3,19.06A58.58,58.58,0,0,1,269,256.89,32.87,32.87,0,0,1,256,273.52c-6.12,4.13-12.94,6.69-19.92,8.87a93,93,0,0,1-19.85,3.94,73.77,73.77,0,0,1-20.66-.8,31.27,31.27,0,0,1-18.1-10.85,62.75,62.75,0,0,1-4.66-6.14,275.9,275.9,0,0,1-15-25.58,21.39,21.39,0,0,1-1.87-14.19,14,14,0,0,1,8-10.54,200.1,200.1,0,0,1,28.6-11.37,175.64,175.64,0,0,1,30.51-6.46A129.31,129.31,0,0,1,243,199.32Z"/>
        <path class="cls-2"
              d="M64.39,302.62a86.28,86.28,0,0,1-21.72-2.2A27.2,27.2,0,0,1,27.18,290a51.05,51.05,0,0,1-7.75-16C17,266,16,257.62,15.55,249.23c-.15-2.56,0-5.15-.28-7.71-.19-2.07.65-3.12,2.4-4.12A95.42,95.42,0,0,1,71,224.77a120.32,120.32,0,0,1,38.56,8.78c3,1.25,5.31,3.13,6.35,6.35a9.68,9.68,0,0,1,.33,3.62c-.34,5.81-.66,11.62-1.1,17.42-.3,3.91-.78,7.8-1.2,11.7a25.24,25.24,0,0,1-7,14.76c-6.88,7.4-15.47,11.66-25.21,13.74a82.37,82.37,0,0,1-9.62,1.44C69.55,302.81,67,302.62,64.39,302.62Z"/>
        <path class="cls-3"
              d="M253.24,179.67c-3.65,0-6.45.07-9.24,0q-13.81-.42-27.64-.09c-5.55.12-11.11.14-16.66.41-8.1.39-16.22.77-24.23,2.27-.8.15-1.61.24-2.41.37-1.83.31-3.5,1.32-5.41,1.35-.19-2.29,1.57-3.8,2.32-5.72a35.42,35.42,0,0,1,1.65-3.25c2.12-4.06,2.11-4.1,6.65-4.67a222.71,222.71,0,0,1,42.56-1.67c7.83.51,15.59,1.74,22.91,4.81A26.44,26.44,0,0,1,253.24,179.67Z"/>
        <path class="cls-4"
              d="M39.39,220.09c-.42-.78.24-1.29.54-1.79A45.34,45.34,0,0,1,68.8,197a60.51,60.51,0,0,1,24.12-1c2.27.34,4.54.64,6.8,1,1,.19,2,.58,3.47,1-3.68,3.15-7.06,6-10.41,8.94a3,3,0,0,1-1.86.63l-7.67.71a162.71,162.71,0,0,0-27.92,4.54C47.74,214.94,45.39,216,39.39,220.09Z"/>
    </g>
</svg>