<svg id="d5f5625f-6b77-499f-9704-cc464071dd29" data-name="Calque 1" xmlns="http://www.w3.org/2000/svg" width="350" height="474" viewBox="0 0 350 474">
    <defs>
        <style>
            .d869ade3-1d45-4fbc-ba62-a321e6ed14cf {
            fill: #e6e7e7;
            }

            .c7f4ed90-b8a0-4ed2-949c-b90abff279ff {
            fill: #020202;
            }

            .f125035f-100b-4d7b-be8e-15c5b6b9a5ed {
            fill: #010101;
            }
        </style>
    </defs>
    <title>Sans titre - 24</title>
    <g>
        <path d="M346.65,225.2a53.51,53.51,0,0,0-.29-6.2c-.11-1.05-.26-2.1-.44-3.13-1.55-9.09-6.36-15.45-15.45-18.22a6.76,6.76,0,0,0-4.15,0,32.32,32.32,0,0,0-9.32,4.75c-.42.29-.83,1.06-1.68.35.08-.7.16-1.47.29-2.22a91.09,91.09,0,0,0,1-19.45,230.89,230.89,0,0,0-3.33-29.43,293.83,293.83,0,0,0-10.39-42.36c-1.9-5.79-3.85-11.64-7.09-16.84a37.09,37.09,0,0,1-4.26-10.34c-.1-.37-.17-.76-.29-1.13-5.06-17-13.67-32-26.58-44.29a110.16,110.16,0,0,0-33.52-21.66c-18-7.66-36.92-11.18-56.38-12.24-8.46-.46-16.91.21-25.33.82a181.93,181.93,0,0,0-24.65,3.6A144.91,144.91,0,0,0,88.51,19.86C69,29.9,53.69,44.3,43.13,63.56c-10.22,18.63-14.88,38.69-14.86,59.88a11.61,11.61,0,0,1-.8,4.92c-4.86,11.13-6.83,22.87-6.89,34.95a125.94,125.94,0,0,0,4.1,32A107.6,107.6,0,0,0,30,211.71c-1.58.45-3.21.85-4.82,1.35-4.95,1.53-9.88,3.11-14.84,4.62-1.73.52-3.52.89-5.26,1.37-1.37.37-1.7.77-1.73,2.16q0,3.12,0,6.24c0,1.34.29,1.62,1.56,1.65,1.92.06,3.85.06,5.92.09.12,2.14.15,4.07.38,6,.65,5.55,1.25,11.12,2.12,16.64a54.69,54.69,0,0,0,11.84,26.77A31.52,31.52,0,0,0,43,289.85a96,96,0,0,0,22.81,2.51,67.13,67.13,0,0,0,25.7-5.63A37.34,37.34,0,0,0,113,262.87a61.94,61.94,0,0,0,1.94-8.34A115.08,115.08,0,0,0,116,240.92a40.44,40.44,0,0,1,1.36-9.23A5.42,5.42,0,0,1,118.8,229c4.84-4.3,10.28-7.08,17-6.25,4.39.54,7.85,2.58,9.78,6.76.37.82.81,1.63,1.13,2.48a111.17,111.17,0,0,0,11.2,21.36A97.33,97.33,0,0,0,167.63,266c6.27,6.88,13.89,11.21,23.64,10.81,6-.24,11.95-.07,17.92-.72a123.43,123.43,0,0,0,26.57-5.79,55.58,55.58,0,0,0,17.75-9.54c7.42-6.11,11.64-13.8,11.82-23.59.22-11.84.4-23.68,0-35.51a10.06,10.06,0,0,1,2.86-7.72c1.93-2.1,3-2.42,5.5-1.24,4.7,2.2,9.34,4.54,14,6.84a2.59,2.59,0,0,1,1.42,1.72,111.48,111.48,0,0,1,4.48,24.48,180.62,180.62,0,0,1-2.22,43.93,79.27,79.27,0,0,1-10,27.27,180.38,180.38,0,0,1-18.77,25.37c-6.06,7-12.32,13.76-18.46,20.66a43.21,43.21,0,0,0-4.61,5.79,29.57,29.57,0,0,1-8,8.45c-.53.39-1,.85-1.82.36,0-.7,0-1.49,0-2.26-.55-8.35-3.38-15.65-9.62-21.52a79.11,79.11,0,0,0-10.57-8.6,112,112,0,0,0-60.2-18.52,88.64,88.64,0,0,0-20.52,2.07,94.64,94.64,0,0,0-36.66,16.37,46.11,46.11,0,0,0-10.2,10.15c-5.73,7.95-7.75,16.61-5,26.19.14.5.5,1-.22,1.77-3-4.08-6-8-8.89-12C60,340.22,52.45,329,45,317.68c-.44-.67-.61-1.83-1.93-1.63-.23,2.77.46,5.43,1,8.08a118.21,118.21,0,0,0,7,21.44A363.76,363.76,0,0,0,75.64,393a12.43,12.43,0,0,1,2,7.31c-.48,11,.93,22.68,5.8,32.65a49,49,0,0,0,6.26,9.66c10.09,12.06,25.45,17.95,40.22,21.95a203.24,203.24,0,0,0,28.93,5.59c9.52,1.12,19.25,1.93,28.76.31a75,75,0,0,0,42.21-22.65c6.12-6.47,10.45-14.76,13.85-22.93q.94-2.25,1.78-4.53a11.7,11.7,0,0,1,5.05-6.16A50,50,0,0,0,262,404.33a128.28,128.28,0,0,0,22.64-38.5c7.77-20.43,16.69-40.6,17.45-63.07.17-4.61,1.18-9.23,1.26-13.92.45-25.22-.78-50.43-.81-75.65,0-1.42-.23-2.91.33-4.25,1-2.43,3.11-2.13,5-1.53,2.54.8.71,2.22.19,3.32a12.65,12.65,0,0,0-1.61,3.94,1.64,1.64,0,0,0,.62,1.73c.69.4,1.2-.16,1.69-.57a10.25,10.25,0,0,0,1.8-2c3.38-4.8,8.29-7.39,13.56-9.44a8.53,8.53,0,0,1,8.8,1.41,14.75,14.75,0,0,1,5.24,8.88,34.77,34.77,0,0,1,.39,12.81c-3.22,22.48-8.16,44.52-18.38,65-4.12,8.27-4.37,8.35-13.11,5.42-.24-.08-.48-.19-.73-.25-.89-.23-2-.6-2.42.43-.32.71.42,1.42,1,2,5.25,5.51,12.9,5.12,17.41-.9.7-.94,1.39-1.89,2-2.87,2.44-3.77,4.69-7.67,6.77-11.65s3.92-8,5.58-12.1,3.12-8.27,4.38-12.5,2.32-8.55,3.17-12.89,1.51-8.82,2-13.28C346.43,231,346.64,228.1,346.65,225.2Zm-59.34-33.85c-2.7-1.61-5-3-7.35-4.39-2.58-1.51-4.88-3.72-7.77-4.36s-5.7-.26-8.56-.36c-5.85-.23-11.7-.54-17.55-.7a215.27,215.27,0,0,0-30.77,1.36,185.66,185.66,0,0,0-39.83,8.71,106.44,106.44,0,0,0-24.42,11.91,69.8,69.8,0,0,0-8.62,6.7,6.24,6.24,0,0,1-3.76,1.78c-2.32.25-4.6.84-6.9,1.2a45.51,45.51,0,0,1-4.65.48c-1.3.08-2.61,0-3.91,0a53,53,0,0,1-16.17-1.77,140.29,140.29,0,0,0-26.52-4.07,151.9,151.9,0,0,0-16.38-.49A158.57,158.57,0,0,0,34,211c-.25.06-.51.09-.77.13a1,1,0,0,1-1.31-1c-.4-2.7-.88-5.39-1.22-8.09-1.35-10.71-2.87-21.4-3.91-32.14a103.14,103.14,0,0,1,.35-22.21,101.24,101.24,0,0,1,5.62-23.43,84.65,84.65,0,0,1,3.82-8.53,10.69,10.69,0,0,1,3.58-4A145,145,0,0,1,69,96.41a243.28,243.28,0,0,1,39.46-11.8c8.64-1.88,17.35-3.33,26.09-4.54,5.92-.81,11.89-1.25,17.83-1.88a390.62,390.62,0,0,1,43.26-1.84c9.62.05,19.26.37,28.84,1.3A125.61,125.61,0,0,1,240.29,80c.76.17,1.48.49,2.24.64a7.08,7.08,0,0,1,4.79,3.69,38.17,38.17,0,0,1,3.39,8.27,126.25,126.25,0,0,1,3.85,17.9c.7,4.63,1.19,9.29,1.78,13.93.1.77.23,1.54.37,2.31a1.25,1.25,0,0,0,1.35,1.11,11.54,11.54,0,0,0,1.95,0c2.62-.45,4.49.81,6.2,2.56a38,38,0,0,1,5.93,8.19,97.79,97.79,0,0,1,7.41,18,264.77,264.77,0,0,1,7.75,33A13.53,13.53,0,0,1,287.31,191.35ZM215.8,368.27c-2.45,7.82-6.09,14.9-12,20.64a36.13,36.13,0,0,1-18.83,9.52c-.64.12-1.3.09-1.94.17a2.16,2.16,0,0,1-2.29-1.1c-.54-.88-1.14-1.74-1.67-2.63-4.92-8.17-12.34-12.8-21.42-14.94a31.85,31.85,0,0,0-17.31.62,24.78,24.78,0,0,0-13.5,10c-1.44,2.16-2.71,4.43-4,6.67s-1.48,2.35-4,1.84a21.53,21.53,0,0,1-6.88-2.6,45.09,45.09,0,0,1-6.6-4.81c-3.83-3.34-7.27-7.07-10.75-10.76a14,14,0,0,1-3.08-6.64,26.51,26.51,0,0,1-.84-7.74,61.8,61.8,0,0,1,2.87-16.45,4.85,4.85,0,0,1,2-2.74c10.72-7.32,22.25-12.71,35.07-15.27a104.28,104.28,0,0,1,22.51-1.56,156.81,156.81,0,0,1,24.73,2.88,81.74,81.74,0,0,1,14,3.42,42.49,42.49,0,0,1,13.74,7.95A33,33,0,0,1,216,362.15,11.09,11.09,0,0,1,215.8,368.27Z"/>
        <g>
            <path class="d869ade3-1d45-4fbc-ba62-a321e6ed14cf" d="M234.06,188.36c4.8.18,9.62-.09,14.41.6a8,8,0,0,1,4.47,2.11,22.13,22.13,0,0,1,5.55,8.83,50.37,50.37,0,0,1,3,13.67c.54,6.08,1.07,12.17.29,18.3a55.24,55.24,0,0,1-2.68,11.74,31.55,31.55,0,0,1-12.54,16c-5.88,4-12.42,6.42-19.12,8.51a89.92,89.92,0,0,1-19,3.78,70.49,70.49,0,0,1-19.83-.77,30,30,0,0,1-17.38-10.41,60.94,60.94,0,0,1-4.47-5.9,264,264,0,0,1-14.36-24.55,20.43,20.43,0,0,1-1.79-13.61,13.43,13.43,0,0,1,7.71-10.13,192.58,192.58,0,0,1,27.46-10.91A168.35,168.35,0,0,1,215,189.4,122.71,122.71,0,0,1,234.06,188.36Z"/>
            <path class="d869ade3-1d45-4fbc-ba62-a321e6ed14cf" d="M62.68,287.51a83.54,83.54,0,0,1-20.85-2.11,26.15,26.15,0,0,1-14.87-10,48.92,48.92,0,0,1-7.43-15.34c-2.37-7.76-3.26-15.75-3.74-23.8-.14-2.47,0-5-.26-7.41-.19-2,.63-3,2.3-4a90.67,90.67,0,0,1,21.47-9A91.62,91.62,0,0,1,69,212.79a115.19,115.19,0,0,1,37,8.42c2.93,1.2,5.1,3,6.1,6.1a9.29,9.29,0,0,1,.31,3.47c-.32,5.57-.63,11.15-1,16.72-.29,3.75-.75,7.49-1.15,11.23a24.24,24.24,0,0,1-6.72,14.17c-6.6,7.1-14.84,11.19-24.19,13.18a80,80,0,0,1-9.23,1.39C67.63,287.69,65.14,287.51,62.68,287.51Z"/>
        </g>
        <g>
            <path class="c7f4ed90-b8a0-4ed2-949c-b90abff279ff" d="M243.93,169.49c-3.49,0-6.18.07-8.86,0q-13.26-.4-26.53-.09c-5.33.12-10.66.13-16,.39-7.78.38-15.57.74-23.26,2.18-.76.14-1.54.23-2.31.36-1.76.3-3.36,1.26-5.19,1.29-.18-2.2,1.5-3.65,2.22-5.48A34.06,34.06,0,0,1,165.6,165c2-3.89,2-3.93,6.38-4.48a213,213,0,0,1,40.85-1.6c7.51.49,15,1.67,22,4.62A25.42,25.42,0,0,1,243.93,169.49Z"/>
            <path class="f125035f-100b-4d7b-be8e-15c5b6b9a5ed" d="M38.67,208.29c-.39-.75.24-1.23.53-1.72a43.5,43.5,0,0,1,27.7-20.41,58.12,58.12,0,0,1,23.16-1c2.18.33,4.36.62,6.52,1a34.32,34.32,0,0,1,3.33,1c-3.53,3-6.77,5.78-10,8.57a2.9,2.9,0,0,1-1.79.62l-7.36.67A155.69,155.69,0,0,0,54,201.4C46.69,203.35,44.44,204.41,38.67,208.29Z"/>
        </g>
    </g>
</svg>
