<?xml version="1.0" encoding="utf-8"?>
<!-- Generator: Adobe Illustrator 22.0.0, SVG Export Plug-In . SVG Version: 6.00 Build 0)  -->
<svg version="1.1" xmlns="http://www.w3.org/2000/svg" xmlns:xlink="http://www.w3.org/1999/xlink" x="0px" y="0px"
	 width="535.2" height="99.4" viewBox="0 0 535.2 99.4" style="enable-background:new 0 0 535.2 99.4;" xml:space="preserve">
<style type="text/css">
	.st0{display:none;}
	.st1{display:inline;}
	.st2{fill:#E82228;}
	.st3{fill:#EA2227;}
	.st4{fill:#060606;}
	.st5{fill:#EA2729;}
	.st6{fill:#E6E7E7;}
	.st7{fill:#E82227;}
	.st8{fill:#040302;}
	.st9{fill:#020202;}
	.st10{fill:#010101;}
	.st11{display:inline;fill:#E6E7E7;}
	.st12{display:inline;fill:#020202;}
	.st13{display:inline;fill:#010101;}
	.st14{display:inline;fill:#B09177;}
	.st15{fill:#2B469C;}
	.st16{fill:#3D56A5;}
	.st17{fill:#243E98;}
	.st18{fill:#2A3789;}
	.st19{fill:#9B2C2C;}
	.st20{fill:#231F20;}
	.st21{fill:#A33E3E;}
	.st22{fill:#962424;}
	.st23{fill:#872A2A;}
</style>
<g id="Calque_1" class="st0">
	<g class="st1">
		<path d="M516.1,65.1c0.3-4.2-0.1-8.5-0.8-12.6c-2.1-12.3-8.6-20.9-20.9-24.6c-2-0.6-3.7-0.5-5.6,0c-4.6,1.4-8.7,3.7-12.6,6.4
			c-0.6,0.4-1.1,1.4-2.3,0.5c0.1-0.9,0.2-2,0.4-3c1.5-8.7,1.7-17.5,1.3-26.3c-0.6-13.4-2.2-26.6-4.5-39.8
			c-3.3-19.4-7.9-38.5-14-57.2c-2.6-7.8-5.2-15.7-9.6-22.8c-2.8-4.4-4.4-9.1-5.8-14c-0.1-0.5-0.2-1-0.4-1.5
			c-6.9-23-18.5-43.2-35.9-59.8c-13.2-12.6-28.5-22.1-45.3-29.3c-24.3-10.4-49.9-15.1-76.2-16.5c-11.4-0.6-22.9,0.3-34.2,1.1
			c-11.2,0.8-22.3,2.5-33.3,4.9c-17,3.7-33.5,9.1-49,17.1c-26.3,13.6-47.1,33-61.3,59.1C92.3-128.2,86-101.1,86.1-72.4
			c0,2.3-0.1,4.4-1.1,6.6c-6.6,15-9.2,30.9-9.3,47.2c-0.1,14.7,1.9,29.1,5.5,43.3c1.9,7.5,4.1,14.9,7.2,22.1
			c-2.1,0.6-4.3,1.2-6.5,1.8c-6.7,2.1-13.4,4.2-20.1,6.2c-2.3,0.7-4.8,1.2-7.1,1.9c-1.9,0.5-2.3,1-2.3,2.9c0,2.8,0,5.6,0,8.4
			c0,1.8,0.4,2.2,2.1,2.2c2.6,0.1,5.2,0.1,8,0.1c0.2,2.9,0.2,5.5,0.5,8.1c0.9,7.5,1.7,15,2.9,22.5c2.1,13.5,7.3,25.6,16,36.2
			c6.3,7.7,14.3,13.1,24,15.2c10.1,2.2,20.4,3.7,30.8,3.4c12.1-0.3,23.7-2.7,34.7-7.6c14.5-6.4,24.2-17.1,29-32.2
			c1.2-3.7,2-7.5,2.6-11.3c1-6.1,1.2-12.2,1.5-18.4c0.2-4.2,0.7-8.4,1.9-12.5c0.4-1.3,0.8-2.7,1.9-3.7c6.6-5.8,13.9-9.6,23-8.4
			c5.9,0.7,10.6,3.5,13.2,9.1c0.5,1.1,1.1,2.2,1.5,3.4c3.8,10.3,9.2,19.7,15.1,28.9c3.9,6,8.3,11.8,13.2,17.1
			c8.5,9.3,18.8,15.1,32,14.6c8.1-0.3,16.1-0.1,24.2-1c12.3-1.3,24.2-3.8,35.9-7.8c8.7-3,16.9-7,24-12.9c10-8.3,15.7-18.6,16-31.9
			c0.3-16,0.5-32,0-48c-0.2-4.3,1.1-7.5,3.9-10.4c2.6-2.8,4-3.3,7.4-1.7c6.4,3,12.6,6.1,18.9,9.2c1,0.5,1.6,1.2,1.9,2.3
			c3.2,10.8,5.3,21.8,6.1,33.1c1.3,19.9,0.5,39.7-3,59.4c-2.4,13.1-6.6,25.4-13.5,36.9c-7.4,12.2-16,23.5-25.4,34.3
			c-8.2,9.4-16.7,18.6-24.9,27.9c-2.2,2.5-4.5,5-6.2,7.8c-2.8,4.6-6.5,8.3-10.8,11.4c-0.7,0.5-1.4,1.1-2.5,0.5c0-1,0.1-2,0-3.1
			c-0.7-11.3-4.6-21.1-13-29.1c-4.5-4.2-9.1-8.2-14.3-11.6c-24.7-16.3-51.9-24.3-81.4-25c-9.3-0.2-18.6,0.9-27.7,2.8
			c-18.1,3.8-34.6,11.2-49.5,22.1c-5.3,3.9-10,8.4-13.8,13.7c-7.7,10.8-10.5,22.5-6.7,35.4c0.2,0.7,0.7,1.4-0.3,2.4
			c-4.1-5.5-8.1-10.8-12-16.2c-10.7-14.8-20.8-30-30.9-45.3c-0.6-0.9-0.8-2.5-2.6-2.2c-0.3,3.7,0.6,7.3,1.4,10.9
			c2.1,10,5.6,19.6,9.5,29c9.3,22.2,20.7,43.4,33.1,64c1.9,3.1,2.8,6.1,2.6,9.9c-0.5,10.6,0.5,21.1,3.2,31.4
			c5,19.4,16.5,33.8,34,43.6c9.9,5.5,20.4,9.2,31.2,12.3c1,0.3,2.2,0.1,2.9,1c1.1,1.1-0.4,2.2-0.2,3.4c0.2,1,0,2.1,0,3.2
			c0,21.5,0,42.9,0,64.4c0,1.2,0,2.5,0.1,3.7c0.1,1.4,0.9,2.3,2.3,2.3c4.9,0.1,9.8,0.1,14.8,0c2,0,2.8-0.9,2.9-3
			c0.1-3.9,0.2-7.8,0-11.6c-0.2-3.5,1.2-6,3.7-8.8c0.7,1.6,1.3,2.8,1.9,4c2.3,5.5,4.7,11,7,16.5c0.8,2.1,2.2,3,4.4,3
			c4,0,8.1-0.1,12.1,0c6.4,0.1,7.3,0.1,4.2-6.5c-5.5-11.6-10.7-23.3-16.2-34.9c-0.8-1.8-0.8-3.2,0.2-4.8c4-6.6,8-13.2,11.9-19.9
			c1-1.7,2.1-2.6,4.1-2.4c3.7,0.3,7.4,0.4,11.1,0.6c1.8-1.3,1.5-3.4,2.1-5.2c1.6-5,4.8-8.5,9.9-10c2.1-0.6,5-1.8,6,1
			c0.8,2.4-2.2,2.6-3.8,3.4c-1.4,0.7-3,1.3-3.9,2.6c-1.6,2.4-4,4.7-1.3,7.8c3.4-0.6,6.9-1,10.3-1.7c6.7-1.3,13-3.9,19.3-6.6l0.2,0
			c1.3-0.8,2.6-1.6,4-2.4c6-3.5,11.6-7.6,16.7-12.4c0.9-0.8,1.8-1.5,2.8-2.3c2.2-0.8,3.8-2.3,5.4-4.1c10.3-12,18.1-25.5,23.5-40.3
			c1.4-3.7,3.5-6.3,6.8-8.3c5.8-3.6,11-8,15.6-13.3c13.4-15.5,23.4-33.1,30.6-52c10.5-27.6,22.6-54.9,23.6-85.2
			c0.2-6.2,1.6-12.5,1.7-18.8c0.6-34.1-1.1-68.2-1.1-102.2c0-1.9-0.3-3.9,0.4-5.7c1.4-3.3,4.2-2.9,6.7-2.1c3.4,1.1,1,3,0.3,4.5
			c-0.8,1.7-2,3.4-2.2,5.3c-0.1,0.9,0,1.8,0.8,2.3c0.9,0.5,1.6-0.2,2.3-0.8c1-0.8,1.7-1.8,2.4-2.8c4.6-6.5,11.2-10,18.3-12.8
			c4.3-1.7,8.2-0.9,11.9,1.9c4,3.1,6,7.3,7.1,12c1.3,5.7,1.3,11.6,0.5,17.3c-4.3,30.4-11,60.2-24.8,87.9
			c-5.6,11.2-5.9,11.3-17.7,7.3c-0.3-0.1-0.7-0.3-1-0.3c-1.2-0.3-2.6-0.8-3.3,0.6c-0.4,1,0.6,1.9,1.3,2.7c7.1,7.4,17.4,6.9,23.5-1.2
			c0.9-1.3,1.9-2.5,2.7-3.9c18.3-28.5,28.4-59.7,30.3-93.5C516.3,66.8,516.1,65.9,516.1,65.1z M436.1,19.3c-3.6-2.2-6.8-4.1-9.9-5.9
			c-3.5-2-6.6-5-10.5-5.9C412,6.7,408,7.1,404.1,7c-7.9-0.3-15.8-0.7-23.7-0.9c-13.9-0.4-27.7,0.2-41.6,1.8
			c-18.4,2.1-36.4,5.7-53.8,11.8c-11.6,4-22.7,9.2-33,16.1c-4.1,2.7-8,5.7-11.6,9.1c-1.5,1.3-3,2.2-5.1,2.4
			c-3.1,0.3-6.2,1.1-9.3,1.6c-2.1,0.3-4.2,0.5-6.3,0.6c-1.8,0.1-3.5,0-5.3,0c-7.4,0.3-14.6-0.5-21.9-2.4
			c-11.7-3.1-23.7-4.6-35.8-5.5c-7.4-0.5-14.7-1-22.1-0.7c-13.7,0.5-27.3,1.7-40.7,4.9c-0.3,0.1-0.7,0.1-1,0.2
			c-1,0.1-1.6-0.2-1.8-1.3c-0.5-3.7-1.2-7.3-1.6-10.9c-1.8-14.5-3.9-28.9-5.3-43.4c-1-10-0.7-20,0.5-30c1.3-10.9,3.8-21.4,7.6-31.7
			c1.5-4,3.3-7.8,5.2-11.5c1.2-2.3,2.7-4,4.8-5.4c12.2-8.5,25.3-15.1,39-20.7c17.3-7,35.1-12,53.3-15.9c11.7-2.5,23.4-4.5,35.3-6.1
			c8-1.1,16.1-1.7,24.1-2.5c19.4-2.1,38.9-2.6,58.5-2.5c13,0.1,26,0.5,39,1.8c7.2,0.7,14.3,1.5,21.4,3.1c1,0.2,2,0.7,3,0.9
			c3,0.6,5,2.5,6.5,5c2,3.5,3.4,7.3,4.6,11.2c2.4,7.9,4,16,5.2,24.2c0.9,6.3,1.6,12.5,2.4,18.8c0.1,1,0.3,2.1,0.5,3.1
			c0.2,1,0.8,1.5,1.8,1.5c0.9,0,1.8,0.2,2.6,0c3.5-0.6,6.1,1.1,8.4,3.5c3.2,3.3,5.8,7.1,8,11.1c4.3,7.7,7.4,15.9,10,24.3
			c4.6,14.6,7.7,29.5,10.5,44.6C436.2,17.4,436.1,17.9,436.1,19.3z M339.5,258.4c-3.3,10.6-8.2,20.1-16.3,27.9
			c-7.2,6.9-15.7,11-25.4,12.9c-0.9,0.2-1.8,0.1-2.6,0.2c-1.4,0.2-2.4-0.3-3.1-1.5c-0.7-1.2-1.5-2.3-2.3-3.6
			c-6.6-11-16.7-17.3-28.9-20.2c-7.8-1.8-15.7-1.6-23.4,0.8c-7.6,2.4-13.8,6.8-18.2,13.5c-1.9,2.9-3.7,6-5.4,9c-1.8,3-2,3.2-5.4,2.5
			c-3.3-0.7-6.4-1.8-9.3-3.5c-3.2-1.9-6.1-4.1-8.9-6.5c-5.2-4.5-9.8-9.6-14.5-14.5c-2.4-2.5-3.4-5.7-4.2-9
			c-0.8-3.4-1.4-6.9-1.1-10.5c0.2-7.6,1.6-15,3.9-22.2c0.5-1.6,1.3-2.8,2.7-3.7c14.5-9.9,30.1-17.2,47.4-20.6
			c10.1-2,20.2-2.3,30.4-2.1c11.3,0.2,22.4,1.9,33.4,3.9c6.4,1.1,12.7,2.4,18.9,4.6c6.8,2.5,13.1,5.9,18.6,10.7
			c7.2,6.4,11.9,14.2,14.2,23.5C340.4,252.9,340.4,255.6,339.5,258.4z"/>
		<path class="st6" d="M364.2,15.3c6.5,0.2,13-0.1,19.5,0.8c2.4,0.3,4.3,1.3,6,2.8c3.6,3.3,5.8,7.5,7.5,11.9c2.3,6,3.5,12.2,4,18.5
			c0.7,8.2,1.4,16.4,0.4,24.7c-0.7,5.4-1.8,10.7-3.6,15.9c-3.2,9.1-9,16.2-17,21.6c-7.9,5.4-16.8,8.7-25.8,11.5
			c-8.4,2.6-17,4.4-25.8,5.1c-8.9,0.8-17.9,0.7-26.8-1c-9.4-1.9-17.3-6.7-23.5-14.1c-2.2-2.5-4.2-5.2-6-8
			c-7.1-10.7-13.5-21.8-19.4-33.2c-3-5.9-3.6-12-2.4-18.4c1.2-6.3,4.7-10.9,10.4-13.7c12-5.8,24.3-10.8,37.1-14.7
			c12.9-4,26.1-6.8,39.6-8.4C346.9,15.7,355.5,15,364.2,15.3z"/>
		<path class="st6" d="M132.6,149.3c-9.5,0-18.9-0.5-28.2-2.9c-8.3-2.1-15-6.6-20.1-13.5c-4.7-6.3-7.8-13.3-10-20.7
			c-3.2-10.5-4.4-21.3-5-32.2c-0.2-3.3-0.1-6.7-0.4-10c-0.3-2.7,0.9-4,3.1-5.3c9.2-5.3,18.8-9.4,29-12.1c13.1-3.6,26.6-5.1,40.1-4.2
			c17.3,1.1,34,4.8,50,11.4c4,1.6,6.9,4.1,8.2,8.2c0.5,1.6,0.5,3.1,0.4,4.7c-0.4,7.5-0.8,15.1-1.4,22.6c-0.4,5.1-1,10.1-1.6,15.2
			c-0.8,7.4-4,13.7-9.1,19.1c-8.9,9.6-20.1,15.1-32.7,17.8c-4.1,0.9-8.3,1.5-12.5,1.9C139.3,149.5,135.9,149.3,132.6,149.3z"/>
		<path class="st10" d="M100.1,42.2c-0.5-1,0.3-1.7,0.7-2.3c8.6-14.4,21.2-23.5,37.4-27.6c10.3-2.6,20.8-2.9,31.3-1.3
			c2.9,0.4,5.9,0.8,8.8,1.4c1.3,0.2,2.6,0.7,4.5,1.3c-4.8,4.1-9.2,7.8-13.5,11.6c-0.7,0.6-1.5,0.7-2.4,0.8c-3.3,0.3-6.6,0.6-10,0.9
			c-12.2,1.1-24.4,2.7-36.2,5.9C111,35.5,107.9,37,100.1,42.2z"/>
	</g>
	<g>
		<path class="st1" d="M280.3,425.8c10.2-0.7,20.3-2.7,29.7-6.8l0.2,0c1.3-0.8,2.6-1.6,4-2.4c6-3.5,11.6-7.6,16.7-12.4
			c0.9-0.8,1.8-1.5,2.8-2.3c2.2-0.8,3.8-2.3,5.4-4.1c10.3-12,18.1-25.5,23.5-40.3c1.4-3.7,3.5-6.3,6.8-8.3c5.8-3.6,11-8,15.6-13.3
			c13.4-15.5,23.4-33.1,30.6-52c10.5-27.6,22.6-54.9,23.6-85.2c0.2-6.2,1.6-12.5,1.7-18.8c0.6-34.1-1.1-68.2-1.1-102.2
			c0-1.9-0.3-3.9,0.4-5.7c1.4-3.3,4.2-2.9,6.7-2.1c3.4,1.1,1,3,0.3,4.5c-0.8,1.7-2,3.4-2.2,5.3c-0.1,0.9,0,1.8,0.8,2.3
			c0.9,0.5,1.6-0.2,2.3-0.8c1-0.8,1.7-1.8,2.4-2.8c4.6-6.5,11.2-10,18.3-12.8c4.3-1.7,8.2-0.9,11.9,1.9c4,3.1,6,7.3,7.1,12
			c1.3,5.7,1.3,11.6,0.5,17.3c-4.3,30.4-11,60.2-24.8,87.9c-5.6,11.2-5.9,11.3-17.7,7.3c-0.3-0.1-0.7-0.3-1-0.3
			c-1.2-0.3-2.6-0.8-3.3,0.6c-0.4,1,0.6,1.9,1.3,2.7c7.1,7.4,17.4,6.9,23.5-1.2c0.9-1.3,1.9-2.5,2.7-3.9
			c18.3-28.5,28.4-59.7,30.3-93.5c-0.1-0.9-0.3-1.7-0.2-2.6c0.3-4.2-0.1-8.5-0.8-12.6c-2.1-12.3-8.6-20.9-20.9-24.6
			c-2-0.6-3.7-0.5-5.6,0c-4.6,1.4-8.7,3.7-12.6,6.4c-0.6,0.4-1.1,1.4-2.3,0.5c0.1-0.9,0.2-2,0.4-3c1.5-8.7,1.7-17.5,1.3-26.3
			c-0.6-13.4-2.2-26.6-4.5-39.8c-3.3-19.4-7.9-38.5-14-57.2c-2.6-7.8-5.2-15.7-9.6-22.8c-2.8-4.4-4.4-9.1-5.8-14
			c-0.1-0.5-0.2-1-0.4-1.5c-6.9-23-18.5-43.2-35.9-59.8c-13.2-12.6-28.5-22.1-45.3-29.3c-24.3-10.4-49.9-15.1-76.2-16.5
			c-11.4-0.6-22.9,0.3-34.2,1.1c-11.2,0.8-22.3,2.5-33.3,4.9c-17,3.7-33.5,9.1-49,17.1c-26.3,13.6-47.1,33-61.3,59.1
			C75.4-99.5,69.1-72.4,69.1-43.7c0,2.3-0.1,4.4-1.1,6.6c-6.6,15-9.2,30.9-9.3,47.2c-0.1,14.7,1.9,29.1,5.5,43.3
			c1.9,7.5,4.1,14.9,7.2,22.1c-2.1,0.6-4.3,1.2-6.5,1.8c-6.7,2.1-13.4,4.2-20.1,6.2c-2.3,0.7-4.8,1.2-7.1,1.9
			c-1.9,0.5-2.3,1-2.3,2.9c0,2.8,0,5.6,0,8.4c0,1.8,0.4,2.2,2.1,2.2c2.6,0.1,5.2,0.1,8,0.1c0.2,2.9,0.2,5.5,0.5,8.1
			c0.9,7.5,1.7,15,2.9,22.5c2.1,13.5,7.3,25.6,16,36.2c6.3,7.7,14.3,13.1,24,15.2c10.1,2.2,20.4,3.7,30.8,3.4
			c12.1-0.3,23.7-2.7,34.7-7.6c14.5-6.4,24.2-17.1,29-32.2c1.2-3.7,2-7.5,2.6-11.3c1-6.1,1.2-12.2,1.5-18.4
			c0.2-4.2,0.7-8.4,1.9-12.5c0.4-1.3,0.8-2.7,1.9-3.7c6.6-5.8,13.9-9.6,23-8.4c5.9,0.7,10.6,3.5,13.2,9.1c0.5,1.1,1.1,2.2,1.5,3.4
			c3.8,10.3,9.2,19.7,15.1,28.9c3.9,6,8.3,11.8,13.2,17.1c8.5,9.3,18.8,15.1,32,14.6c8.1-0.3,16.1-0.1,24.2-1
			c12.3-1.3,24.2-3.8,35.9-7.8c8.7-3,16.9-7,24-12.9c10-8.3,15.7-18.6,16-31.9c0.3-16,0.5-32,0-48c-0.2-4.3,1.1-7.5,3.9-10.4
			c2.6-2.8,4-3.3,7.4-1.7c6.4,3,12.6,6.1,18.9,9.2c1,0.5,1.6,1.2,1.9,2.3c3.2,10.8,5.3,21.8,6.1,33.1c1.3,19.9,0.5,39.7-3,59.4
			c-2.4,13.1-6.6,25.4-13.5,36.9c-7.4,12.2-16,23.5-25.4,34.3c-8.2,9.4-16.7,18.6-24.9,27.9c-2.2,2.5-4.5,5-6.2,7.8
			c-2.8,4.6-6.5,8.3-10.8,11.4c-0.7,0.5-1.4,1.1-2.5,0.5c0-1,0.1-2,0-3.1c-0.7-11.3-4.6-21.1-13-29.1c-4.5-4.2-9.1-8.2-14.3-11.6
			c-24.7-16.3-51.9-24.3-81.4-25c-9.3-0.2-18.6,0.9-27.7,2.8c-18.1,3.8-34.6,11.2-49.5,22.1c-5.3,3.9-10,8.4-13.8,13.7
			c-7.7,10.8-10.5,22.5-6.7,35.4c0.2,0.7,0.7,1.4-0.3,2.4c-4.1-5.5-8.1-10.8-12-16.2c-10.7-14.8-20.8-30-30.9-45.3
			c-0.6-0.9-0.8-2.5-2.6-2.2c-0.3,3.7,0.6,7.3,1.4,10.9c2.1,10,5.6,19.6,9.5,29c9.3,22.2,20.7,43.4,33.1,64c1.9,3.1,2.8,6.1,2.6,9.9
			c-0.5,10.6,0.5,21.1,3.2,31.4c5,19.4,16.5,33.8,34,43.6c16.3,9.1,34.6,13.7,52.9,16.4C243.2,424.4,262.1,427.1,280.3,425.8z
			 M419.1,48c-3.6-2.2-6.8-4.1-9.9-5.9c-3.5-2-6.6-5-10.5-5.9c-3.7-0.8-7.7-0.3-11.6-0.5c-7.9-0.3-15.8-0.7-23.7-0.9
			c-13.9-0.4-27.7,0.2-41.6,1.8c-18.4,2.1-36.4,5.7-53.8,11.8c-11.6,4-22.7,9.2-33,16.1c-4.1,2.7-8,5.7-11.6,9.1
			c-1.5,1.3-3,2.2-5.1,2.4c-3.1,0.3-6.2,1.1-9.3,1.6c-2.1,0.3-4.2,0.5-6.3,0.6c-1.8,0.1-3.5,0-5.3,0c-7.4,0.3-14.6-0.5-21.9-2.4
			c-11.7-3.1-23.7-4.6-35.8-5.5c-7.4-0.5-14.7-1-22.1-0.7c-13.7,0.5-27.3,1.7-40.7,4.9c-0.3,0.1-0.7,0.1-1,0.2
			c-1,0.1-1.6-0.2-1.8-1.3c-0.5-3.7-1.2-7.3-1.6-10.9C70.5,48,68.5,33.5,67.1,19c-1-10-0.7-20,0.5-30c1.3-10.9,3.8-21.4,7.6-31.7
			c1.5-4,3.3-7.8,5.2-11.5c1.2-2.3,2.7-4,4.8-5.4c12.2-8.5,25.3-15.1,39-20.7c17.3-7,35.1-12,53.3-15.9c11.7-2.5,23.4-4.5,35.3-6.1
			c8-1.1,16.1-1.7,24.1-2.5c19.4-2.1,38.9-2.6,58.5-2.5c13,0.1,26,0.5,39,1.8c7.2,0.7,14.3,1.5,21.4,3.1c1,0.2,2,0.7,3,0.9
			c3,0.6,5,2.5,6.5,5c2,3.5,3.4,7.3,4.6,11.2c2.4,7.9,4,16,5.2,24.2c0.9,6.3,1.6,12.5,2.4,18.8c0.1,1,0.3,2.1,0.5,3.1
			c0.2,1,0.8,1.5,1.8,1.5c0.9,0,1.8,0.2,2.6,0c3.5-0.6,6.1,1.1,8.4,3.5c3.2,3.3,5.8,7.1,8,11.1c4.3,7.7,7.4,15.9,10,24.3
			c4.6,14.6,7.7,29.5,10.5,44.6C419.2,46.1,419.1,46.6,419.1,48z M322.5,287.1c-3.3,10.6-8.2,20.1-16.3,27.9
			c-7.2,6.9-15.7,11-25.4,12.9c-0.9,0.2-1.8,0.1-2.6,0.2c-1.4,0.2-2.4-0.3-3.1-1.5c-0.7-1.2-1.5-2.3-2.3-3.6
			c-6.6-11-16.7-17.3-28.9-20.2c-7.8-1.8-15.7-1.6-23.4,0.8c-7.6,2.4-13.8,6.8-18.2,13.5c-1.9,2.9-3.7,6-5.4,9c-1.8,3-2,3.2-5.4,2.5
			c-3.3-0.7-6.4-1.8-9.3-3.5c-3.2-1.9-6.1-4.1-8.9-6.5c-5.2-4.5-9.8-9.6-14.5-14.5c-2.4-2.5-3.4-5.7-4.2-9
			c-0.8-3.4-1.4-6.9-1.1-10.5c0.2-7.6,1.6-15,3.9-22.2c0.5-1.6,1.3-2.8,2.7-3.7c14.5-9.9,30.1-17.2,47.4-20.6
			c10.1-2,20.2-2.3,30.4-2.1c11.3,0.2,22.4,1.9,33.4,3.9c6.4,1.1,12.7,2.4,18.9,4.6c6.8,2.5,13.1,5.9,18.6,10.7
			c7.2,6.4,11.9,14.2,14.2,23.5C323.4,281.7,323.4,284.3,322.5,287.1z"/>
		<path class="st11" d="M347.2,44c6.5,0.2,13-0.1,19.5,0.8c2.4,0.3,4.3,1.3,6,2.8c3.6,3.3,5.8,7.5,7.5,11.9c2.3,6,3.5,12.2,4,18.5
			c0.7,8.2,1.4,16.4,0.4,24.7c-0.7,5.4-1.8,10.7-3.6,15.9c-3.2,9.1-9,16.2-17,21.6c-7.9,5.4-16.8,8.7-25.8,11.5
			c-8.4,2.6-17,4.4-25.8,5.1c-8.9,0.8-17.9,0.7-26.8-1c-9.4-1.9-17.3-6.7-23.5-14.1c-2.2-2.5-4.2-5.2-6-8
			c-7.1-10.7-13.5-21.8-19.4-33.2c-3-5.9-3.6-12-2.4-18.4c1.2-6.3,4.7-10.9,10.4-13.7c12-5.8,24.3-10.8,37.1-14.7
			c12.9-4,26.1-6.8,39.6-8.4C329.9,44.4,338.5,43.7,347.2,44z"/>
		<path class="st11" d="M115.6,178c-9.5,0-18.9-0.5-28.2-2.9c-8.3-2.1-15-6.6-20.1-13.5c-4.7-6.3-7.8-13.3-10-20.7
			c-3.2-10.5-4.4-21.3-5-32.2c-0.2-3.3-0.1-6.7-0.4-10c-0.3-2.7,0.9-4,3.1-5.3c9.2-5.3,18.8-9.4,29-12.1c13.1-3.6,26.6-5.1,40.1-4.2
			c17.3,1.1,34,4.8,50,11.4c4,1.6,6.9,4.1,8.2,8.2c0.5,1.6,0.5,3.1,0.4,4.7c-0.4,7.5-0.8,15.1-1.4,22.6c-0.4,5.1-1,10.1-1.6,15.2
			c-0.8,7.4-4,13.7-9.1,19.1c-8.9,9.6-20.1,15.1-32.7,17.8c-4.1,0.9-8.3,1.5-12.5,1.9C122.3,178.2,118.9,178,115.6,178z"/>
		<path class="st12" d="M360.5,18.5c-4.7,0-8.4,0.1-12,0c-11.9-0.4-23.9-0.4-35.8-0.1c-7.2,0.2-14.4,0.2-21.6,0.5
			c-10.5,0.5-21,1-31.4,2.9c-1,0.2-2.1,0.3-3.1,0.5c-2.4,0.4-4.5,1.7-7,1.7c-0.2-3,2-4.9,3-7.4c0.6-1.5,1.4-2.8,2.1-4.2
			c2.7-5.3,2.7-5.3,8.6-6.1C281.6,4.1,300,3,318.5,4.2c10.2,0.7,20.2,2.3,29.7,6.2C352.4,12.2,356.4,14.3,360.5,18.5z"/>
		<path class="st13" d="M83.1,70.9c-0.5-1,0.3-1.7,0.7-2.3c8.6-14.4,21.2-23.5,37.4-27.6c10.3-2.6,20.8-2.9,31.3-1.3
			c2.9,0.4,5.9,0.8,8.8,1.4c1.3,0.2,2.6,0.7,4.5,1.3c-4.8,4.1-9.2,7.8-13.5,11.6c-0.7,0.6-1.5,0.7-2.4,0.8c-3.3,0.3-6.6,0.6-10,0.9
			c-12.2,1.1-24.4,2.7-36.2,5.9C94,64.3,90.9,65.7,83.1,70.9z"/>
	</g>
	<g id="oUn1aZ.tif">
		
			<image style="display:inline;overflow:visible;" width="1080" height="810" id="Layer_0_2_" xlink:href="1B7F58ABB3EC2DB2.png"  transform="matrix(1.779 0 0 1.779 -899.9341 -538.4675)">
		</image>
	</g>
</g>
<g id="Calque_2">
</g>
<g id="Calque_3">
	<g>
		<g>
			<path class="st2" d="M288.5,17.9c0.1-1.4,0.1-2.8,0.4-4.2c1.5-8.2,8.9-13.8,17.2-13c1.7,0.2,2.5,0.7,2.7,2
				c0.4,2.4-0.1,3.7-1.8,4.4c-1,0.4-2,0.6-3,1c-4.9,1.8-6.3,3.8-6.5,9.5c0.4,4.6,0.8,9.1,1.2,13.7c0.1,1.7,0.3,3.5,0.3,5.3
				c0,4.8-1.4,9-5.5,11.9c-0.4,0.3-0.7,0.8-1.2,1.4c3.9,2.6,6.1,6.3,6.6,10.8c0.2,1.9,0.2,3.9,0,5.8c-0.3,4.9-0.8,9.8-1.2,14.7
				c-0.1,1.4,0,2.8,0.2,4.2c0.4,3.1,2.3,5,5.2,6.1c1.3,0.5,2.7,0.7,4.1,1.2c1.7,0.7,2.6,2.5,2.2,4.3c-0.3,1.1-0.8,1.9-2.1,2.1
				c-9.3,1.2-17.2-4.1-18.6-13.6c-0.5-3.2-0.3-6.4,0.4-9.5c0.9-4.5,1-9.1,1.3-13.6c0.3-4.7-1.1-6.7-5.4-8.5c-0.6-0.3-1.3-0.4-2-0.7
				c-1.6-0.6-2.6-1.6-2.6-3.5c0-1.7,1.2-2.4,2.5-3c1-0.4,2-0.7,3-1.1c3.2-1.3,4.7-3.6,4.5-7c-0.2-3.9-0.6-7.7-0.9-11.6
				C289.1,23.8,288.8,20.8,288.5,17.9z"/>
			<path class="st3" d="M500.8,49.6c-0.7-0.7-1-1.2-1.4-1.5c-4.1-3-5.6-7-5.1-12c0.3-3.7,0.5-7.4,0.8-11c0.2-2.8,0.4-5.6,0.4-8.4
				c-0.1-4.8-2.1-7.5-6.7-8.9c-0.8-0.3-1.7-0.4-2.5-0.7c-2-0.7-2.4-1.3-2.4-3.5c0-2.4,0.6-3,3.1-3.3c9.7-1,17.7,6.3,17.5,15.9
				c-0.1,3.5-0.5,7-1,10.5c-0.6,3.8-0.7,7.7-0.7,11.5c0,3.6,1.6,6,5,7.2c1,0.4,2,0.7,3,1c1.3,0.5,1.9,1.4,1.9,2.8
				c0,1.6-0.5,2.7-2,3.3c-1.3,0.5-2.6,1-3.9,1.6c-2.6,1.2-4.1,3.3-3.9,6.2c0.1,3.2,0.3,6.3,0.6,9.5c0.3,3.1,0.7,6.3,1.1,9.4
				c0.3,2.1,0.1,4.2-0.2,6.3c-1.6,9-9.3,14.6-18.4,13.2c-1.2-0.2-1.9-0.8-2-2.1c0-0.9,0-1.8,0-2.6c0.1-1,0.6-1.6,1.5-1.9
				c1.4-0.3,2.8-0.6,4.1-1c3.5-1.1,5.6-3.7,5.8-7.3c0.1-2.1-0.2-4.2-0.3-6.3c-0.3-4.7-0.5-9.5-0.8-14.2
				C493.9,57.8,495.7,53.1,500.8,49.6z"/>
		</g>
		<path class="st5" d="M526.1,68.7c2.1,0,4.2-0.1,6.3,0c1.5,0.1,2.3,0.8,2.3,2.3c0.1,4.2,0,8.4,0,12.6c0,1-0.7,1.6-1.6,1.8
			c-1.4,0.2-2.8,0.2-4.2,0.2c-3.3,0-6.6,0-10-0.1c-1.6-0.1-2.3-0.8-2.3-2.3c-0.1-4-0.1-8,0-12.1c0-1.6,0.7-2.3,2.2-2.4
			C521.2,68.6,523.7,68.7,526.1,68.7C526.1,68.7,526.1,68.7,526.1,68.7z"/>
		<g>
			<path class="st7" d="M423.6,32.9c-0.6-10.6-6.3-18-16.4-21.8c-3.3-1.2-6.8-1.9-10.3-1.9c-7.2-0.1-14.4,0-21.6,0
				c-3.9,0-4.2,0.3-4.3,4.2c0,1.1,0,2.1,0,3.2c0,10.2,0,20.4,0,30.6c0,10.9,0,21.8,0,32.7c0,5.6,0,5.7,5.4,5.7c6.5,0,13,0,19.5,0
				c2.1,0,4.2-0.2,6.3-0.5c12-1.7,20.9-11,21.4-23.1C424,52.2,424.1,42.5,423.6,32.9z M403.8,59.3c-0.1,4.1-2.7,6.8-6.8,7.5
				c-1.2,0.2-2.5,0.1-3.7,0.1c-2.1,0-2.4-0.3-2.4-2.5c0-5.8,0-11.6,0-17.4c0,0,0,0,0,0c0-5.8,0-11.6,0-17.4c0-1,0.5-1.6,1.6-1.6
				c1.6,0,3.2-0.1,4.7,0.1c3.9,0.5,6.5,3.1,6.6,7C403.9,43.2,403.9,51.2,403.8,59.3z"/>
			<path class="st7" d="M484.9,47.3c0-4.2,0-8.4,0-12.7c0-3.7-0.7-7.4-2-10.8c-3-8-8.6-13.2-16.7-15.5c-3.9-1.1-8-1.2-12-0.6
				C443.8,9,437,14.5,433.5,24.2c-1.5,4-1.9,8.2-1.9,12.4c0,7.2-0.1,14.4,0,21.6c0,2.6,0.2,5.3,0.8,7.9c2.2,10.5,8.2,17.7,18.8,20.5
				c3.3,0.9,6.6,0.8,10,0.6c10.5-0.8,17.7-6.1,21.6-15.9c1.5-3.6,2.1-7.4,2.1-11.3C484.9,55.8,484.9,51.5,484.9,47.3z M465,48
				c0,3.9,0,7.7,0,11.6c0,1.1,0,2.1-0.1,3.2c-0.6,3.6-2.9,5.6-6.4,5.8c-3.6,0.1-5.9-1.6-6.8-5.3c-0.2-1-0.3-2.1-0.3-3.1
				c0-8.4,0-16.9,0-25.3c0-1.4,0.1-2.8,0.6-4.1c1.2-2.9,3.7-4.6,6.5-4.5c2.8,0.1,5.3,2.1,6.1,5c0.4,1.3,0.4,2.8,0.4,4.2
				C465.1,39.5,465,43.8,465,48z"/>
			<path class="st7" d="M364.1,80.5c-3.8-14.2-7.7-28.4-11.5-42.7c-2.2-8-4.3-15.9-6.5-23.9c-1.3-4.7-1.5-4.8-6-4.8
				c-4.2,0-8.4,0-12.6,0c0,0-0.2,0-0.2,0c-1.8,1.5-1.9,3.7-2.4,5.7c-4.2,15.4-8.4,30.8-12.6,46.2c-1.9,7.1-3.8,14.2-5.7,21.4
				c-0.6,2.4-0.2,3,2,3c4.7,0.1,9.5,0.1,14.2,0c3.3-0.1,3.6-0.4,4.4-3.9c0.2-0.9,0.4-1.7,0.6-2.6c0.2-1.3,1-1.8,2.2-1.8
				c2.5,0,4.9-0.1,7.4,0c1.9,0.1,4-0.7,5.6,0.7c1.3,1.1,0.8,3,1.2,4.5c0.7,2.5,1.3,3.1,4.1,3.1c4,0.1,8.1,0.1,12.1,0
				C365.4,85.5,365.4,85.4,364.1,80.5z M331.4,59.4c1-7.6,2.6-14.9,4.4-22.2c1.3,7.2,2.6,14.5,3.9,22.2
				C336.6,59.4,334.2,59.4,331.4,59.4z"/>
		</g>
		<g>
			<path class="st4" d="M19.4,33.3c1.3,2.6,0.7,5,0.7,7.4c0,1.1-0.8,1.9-2.1,1.9c-3.5,0-7,0-10.5,0c-1.8,0-3.5,0-5.3-0.1
				c-1,0-1.6-0.7-1.7-1.6c-0.1-0.5-0.1-1-0.1-1.6c0-10,0-20,0-30c0-2.4,0.2-2.6,2.8-2.7c0.2,0,0.4,0,0.5,0c7.2,0,6.2-0.6,6.2,6.1
				c0,6.3,0,12.6,0,18.9c0,1,0.5,1.6,1.5,1.6C14.2,33.3,16.8,33.3,19.4,33.3z"/>
			<path class="st8" d="M39.8,32.2c-1.5,0-3.1-0.3-4.1,1.6c-0.5,0.9-1.9,0.8-2.9,0.3c-1.5-0.7-1.7-2.1-1.3-3.7
				c2.6-0.6,5.2-0.2,7.8-0.3c6.5-0.1,6.1,0.7,6-6.4c0-1.4-0.1-2.8-0.5-4.2c-0.9-3.4-2.8-6-6.1-7.5c-7.6-3.5-16.2,1.6-16.9,10.1
				c-0.3,3-0.2,6,0,9c0.4,8.1,6.9,13.1,14.9,11.5c2.5-0.5,4.6-1.7,6.1-3.8c1.4-1.8,2.5-3.8,1.7-6.3C43,31.9,41.4,32.3,39.8,32.2z
				 M31.4,21.2c0.5-1,1.1-1.7,2.3-1.7c1.2-0.1,1.9,0.5,2.5,1.5c0.7,1.3,0.2,2.5-1.1,2.6c-0.5,0-1,0-2.3,0c0.4,0,0.1,0-0.3,0
				C31.4,23.4,30.9,22.3,31.4,21.2z"/>
		</g>
		<g>
			<path d="M54.6,47.4c0-4.2,0-8.4,0-12.7c0-4.1,0.7-8.1,2.2-11.8c3.5-8.5,9.8-13.4,18.8-15c7.2-1.3,14-0.5,20.3,3.2
				c7.3,4.4,11.4,10.7,11.4,19.4c0,8.1,0.9,7.1-6.9,7.1c-3.3,0-6.7,0-10,0c-2.5,0-2.7-0.3-2.9-2.6c-0.1-1-0.1-2.1-0.2-3.1
				c-0.5-2.8-2.2-4.6-4.7-5c-3.2-0.5-5.7,0.8-6.9,3.5c-0.6,1.3-0.9,2.6-0.9,4.1c0,8.8,0,17.6,0,26.4c0,0.7,0.1,1.4,0.2,2.1
				c1,4.7,4.6,6.7,9.1,5.1c2-0.7,3-2.3,3.4-4.3c0.1-0.6-0.2-1.1-0.7-1.2c-1.4-0.2-2.8-0.2-4.2-0.4c-1.2-0.1-1.9-0.8-2-2
				c0-4.2-0.1-8.4,0-12.7c0-2,0.6-2.5,2.6-2.5c5.6,0,11.2,0,16.9,0c1.8,0,3.5,0,5.3,0c1.5,0.1,2.3,0.8,2.5,2.2c0,0.2,0.1,0.3,0,0.5
				c-0.1,6.5,0.5,13-0.6,19.5c-1.9,11.4-9.8,18.9-21.2,20.1c-4.4,0.5-8.8,0.7-13.1-0.6c-9.6-2.9-15.3-9.5-17.6-19.1
				c-0.7-2.9-1-5.9-0.9-8.9C54.6,54.8,54.6,51.1,54.6,47.4z"/>
			<path d="M116.9,47.5c0-10.5,0-21.1,0-31.6c0-1.2-0.1-2.5,0-3.7c0.1-2.1,0.9-2.9,2.9-3c1.1-0.1,2.1,0,3.2,0c10.5,0,21.1,0,31.6,0
				c1.1,0,2.1,0,3.2,0c1.4,0.1,2.2,0.8,2.3,2.4c0.1,2.5,0.1,4.9,0.1,7.4c0,2.3,0,4.6-0.1,6.9c-0.1,1.6-0.7,2.2-2.2,2.3
				c-1.6,0.1-3.2,0-4.7,0c-4.7,0-9.5,0-14.2,0c-1.3,0-1.9,0.7-1.9,2c0,0.7,0,1.4,0,2.1c0.1,6-0.8,5.7,5.6,5.7c3.2,0,6.3-0.1,9.5,0
				c2.1,0.1,2.9,0.8,3,2.9c0.1,4.4,0.1,8.8,0,13.2c0,2.4-0.7,2.9-3.3,3c-3.3,0.1-6.7,0-10,0c-1.1,0-2.1,0-3.2,0.1
				c-0.8,0.1-1.3,0.4-1.5,1.2c0,0.2-0.1,0.3-0.1,0.5c0.1,9.4-1.5,7.9,7.5,8c4.4,0.1,8.8,0,13.2,0c2.6,0,3.2,0.6,3.2,3
				c0.1,4.4,0.1,8.8,0,13.2c0,1.8-0.8,2.6-2.5,2.7c-0.9,0.1-1.8,0.1-2.6,0.1c-11.1,0-22.2,0-33.2,0c-1.1,0-2.1,0-3.2-0.1
				c-1.4-0.2-2.2-1-2.3-2.4c-0.1-1.2-0.1-2.5-0.1-3.7C116.9,68.9,116.9,58.2,116.9,47.5z"/>
			<path d="M170.6,47.2c0-11.1,0-22.2,0-33.2c0-4.6,0.2-4.8,4.7-4.8c11.3,0,22.5,0,33.8,0c0.9,0,1.8,0,2.6,0.1c1.2,0.1,2,0.9,2,2.1
				c0.1,4.9,0.1,9.8,0,14.8c0,1.4-0.8,2-2.5,2c-3.9,0.1-7.7,0-11.6,0c-0.7,0-1.4-0.1-2.1,0c-2.2,0.2-4.5-0.6-6.6,0.7
				c-0.1,2.6-0.2,5.2-0.2,7.9c0,0.8,0.7,1.2,1.4,1.2c3.7,0,7.4,0,11.1,0.1c5.3,0,5.4,0.1,5.4,5.2c0,3.3,0,6.7,0,10
				c-0.1,3.5-0.4,3.8-4,3.8c-3.9,0.1-7.7,0-11.6,0c-2.1,0-2.3,0.4-2.4,2.5c0,0.2,0,0.4,0,0.5c0.1,7.8-1.1,6.7,6.6,6.8
				c4.6,0,9.1,0,13.7,0c3,0,3.5,0.5,3.6,3.2c0.1,4.2,0.1,8.4,0,12.7c0,2.3-0.9,3.1-3.3,3.1c-6.3,0.1-12.7,0-19,0
				c-5.5,0-10.9,0-16.4,0c-1.1,0-2.1,0.1-3.2-0.1c-1.1-0.2-2-0.8-2-2.1c-0.1-1.4-0.1-2.8-0.1-4.2C170.5,68.7,170.6,57.9,170.6,47.2z
				"/>
			<path d="M277.4,79.3c3.2,6.6,2.3,6.6-4.2,6.5c-4-0.1-8.1-0.1-12.1,0c-2.2,0-3.6-0.9-4.4-3c-2.3-5.5-4.6-11-7-16.5
				c-0.5-1.2-1.1-2.4-1.8-4c-2.5,2.8-3.9,5.3-3.7,8.8c0.3,3.8,0.1,7.7,0,11.6c0,2.1-0.8,3-2.9,3c-4.9,0.1-9.9,0.1-14.8,0
				c-1.4,0-2.2-0.9-2.3-2.3c-0.1-1.2-0.1-2.5-0.1-3.7c0-20.6,0-41.2,0-61.8v-1.2c0-0.5,0-0.9,0-1.4c0-0.4,0-0.7,0.1-1.1
				c0.1-1.4,0.9-2.3,2.3-2.3c4.9-0.1,9.8-0.1,14.8,0c2,0,2.8,0.9,2.9,3c0.1,3.9,0.2,7.8,0,11.6c-0.1,2.1,0.3,3.8,1.3,5.5l2.9,2.3
				c0.5-1.1,1-2,1.4-3c2.4-5.5,4.7-11,7-16.5c0.8-2.1,2.2-3,4.4-3c4,0,8.1,0.1,12.1,0c6.4-0.1,7.3-0.1,4.2,6.5
				c-4.8,10.1-9.4,20.3-14.1,30.5C268,59,272.6,69.2,277.4,79.3z"/>
		</g>
		<path d="M224.2,15.4c0,0.5,0,0.9,0,1.4L224.2,15.4L224.2,15.4z"/>
	</g>
</g>
</svg>
